<svg width="488" height="142" viewBox="0 0 488 142" fill="none" xmlns="http://www.w3.org/2000/svg">
<g clip-path="url(#clip0_4854:3015)">
<path d="M123.49 32.79H96.35L32.79 96.34V123.49C32.79 124.999 33.3895 126.446 34.4566 127.513C35.5237 128.581 36.971 129.18 38.48 129.18H123.48C124.228 129.181 124.968 129.035 125.659 128.75C126.35 128.464 126.978 128.045 127.506 127.516C128.035 126.988 128.454 126.36 128.74 125.669C129.025 124.978 129.171 124.238 129.17 123.49V38.49C129.17 36.9809 128.571 35.5336 127.503 34.4665C126.436 33.3995 124.989 32.8 123.48 32.8" fill="#00ACD8"/>
<path d="M32.79 38.48C32.79 36.9709 33.3895 35.5236 34.4566 34.4566C35.5236 33.3895 36.9709 32.79 38.48 32.79H96.39L119.47 9.71C120.263 8.91547 120.804 7.90406 121.023 6.80306C121.243 5.70207 121.132 4.56071 120.704 3.52265C120.277 2.48459 119.552 1.59624 118.62 0.969406C117.689 0.342575 116.593 0.00528968 115.47 0H5.69C4.18092 0 2.73365 0.599483 1.66656 1.66656C0.599483 2.73365 0 4.18092 0 5.69V115.45C0.00528968 116.573 0.342575 117.669 0.969406 118.6C1.59624 119.531 2.4846 120.257 3.52266 120.684C4.56072 121.112 5.70208 121.223 6.80307 121.003C7.90406 120.784 8.91548 120.243 9.71001 119.45L32.79 96.37V38.48Z" fill="#0F206C"/>
<path d="M190.16 75.07L180.49 61.46C179.367 61.5826 178.239 61.6427 177.11 61.64H165.73V75.07H161.26V32.74H177.11C187.87 32.74 194.4 38.18 194.4 47.25C194.4 53.9 190.9 58.56 184.73 60.55L195.11 75.07H190.16ZM189.92 47.25C189.92 40.48 185.44 36.61 176.98 36.61H165.73V57.83H176.98C185.44 57.83 189.92 53.9 189.92 47.25Z" fill="#0F206C"/>
<path d="M231.76 60.49H205.16C205.64 67.15 210.72 71.56 217.67 71.56C219.499 71.6172 221.319 71.2736 223.001 70.5533C224.684 69.8329 226.189 68.7533 227.41 67.39L229.83 70.17C226.99 73.56 222.57 75.37 217.55 75.37C207.64 75.37 200.86 68.6 200.86 59.16C200.86 49.72 207.45 43.02 216.4 43.02C225.35 43.02 231.82 49.61 231.82 59.16C231.82 59.53 231.76 60.01 231.76 60.49ZM205.16 57.29H227.71C227.17 51.06 222.63 46.71 216.4 46.71C210.17 46.71 205.7 51.06 205.16 57.29V57.29Z" fill="#0F206C"/>
<path d="M263.75 55.35V75.07H259.64V70.07C257.7 73.33 253.96 75.33 248.7 75.33C241.5 75.33 237.08 71.58 237.08 66.08C237.08 61.18 240.23 57.08 249.36 57.08H259.46V55.14C259.46 49.7 256.37 46.74 250.46 46.74C246.599 46.6883 242.847 48.0183 239.88 50.49L237.94 47.28C241.626 44.3945 246.2 42.8782 250.88 42.99C259.11 43.02 263.75 47.13 263.75 55.35ZM259.46 65.51V60.31H249.46C243.29 60.31 241.3 62.73 241.3 66C241.3 69.69 244.3 72 249.3 72C254.2 71.98 257.77 69.69 259.46 65.51V65.51Z" fill="#0F206C"/>
<path d="M275.42 30.2H279.72V75.07H275.42V30.2Z" fill="#0F206C"/>
<path d="M338.37 71.2V75.07H308.44V32.74H337.44V36.64H312.91V51.64H334.8V55.46H312.91V71.18L338.37 71.2Z" fill="#0F206C"/>
<path d="M343.11 71.44L345.04 68.05C348.347 70.4189 352.322 71.676 356.39 71.64C362.44 71.64 364.92 69.58 364.92 66.44C364.92 58.16 344.3 64.69 344.3 52.11C344.3 46.91 348.77 43.04 356.88 43.04C360.99 43.04 365.46 44.19 368.12 46.04L366.25 49.49C363.479 47.6455 360.208 46.6961 356.88 46.77C351.13 46.77 348.59 49 348.59 52.03C348.59 60.61 369.21 54.14 369.21 66.36C369.21 71.86 364.37 75.43 356.09 75.43C350.83 75.37 345.75 73.64 343.11 71.44Z" fill="#0F206C"/>
<path d="M393.88 73.13C391.981 74.6516 389.602 75.4459 387.17 75.37C381.17 75.37 377.86 71.98 377.86 66.12V46.89H372.17V43.26H377.86V36.26H382.11V43.26H391.79V46.89H382.11V65.89C382.11 69.63 384.05 71.69 387.61 71.69C389.329 71.737 391.006 71.1578 392.33 70.06L393.88 73.13Z" fill="#0F206C"/>
<path d="M425.57 56.95V76.64H421.46V71.64C419.52 74.9 415.77 76.9 410.46 76.9C403.27 76.9 398.85 73.15 398.85 67.64C398.85 62.75 402 58.64 411.13 58.64H421.23V56.71C421.23 51.27 418.14 48.3 412.23 48.3C408.366 48.2468 404.61 49.5769 401.64 52.05L399.71 48.85C403.394 45.9594 407.969 44.4394 412.65 44.55C420.91 44.64 425.57 48.73 425.57 56.95ZM421.28 67.11V61.91H411.28C405.11 61.91 403.12 64.33 403.12 67.59C403.12 71.28 406.12 73.59 411.12 73.59C416.02 73.58 419.58 71.28 421.28 67.11V67.11Z" fill="#0F206C"/>
<path d="M452.78 74.73C450.881 76.2516 448.502 77.0459 446.07 76.97C440.07 76.97 436.76 73.58 436.76 67.71V48.48H431.11V44.86H436.8V37.86H441.09V44.86H450.77V48.48H441.09V67.48C441.09 71.23 443.03 73.29 446.59 73.29C448.31 73.3333 449.987 72.7505 451.31 71.65L452.78 74.73Z" fill="#0F206C"/>
<path d="M487.19 62.09H460.58C461.11 68.74 466.11 73.16 473.11 73.16C474.94 73.2173 476.761 72.8728 478.444 72.1506C480.126 71.4284 481.63 70.3462 482.85 68.98L485.26 71.77C482.42 75.15 478.01 76.97 472.99 76.97C463.07 76.97 456.3 70.19 456.3 60.76C456.3 51.33 462.88 44.64 471.83 44.64C480.78 44.64 487.25 51.24 487.25 60.79C487.25 61.12 487.19 61.64 487.19 62.09ZM460.58 58.89H483.11C482.56 52.66 478.03 48.3 471.8 48.3C465.57 48.3 461.11 52.64 460.58 58.89Z" fill="#0F206C"/>
<path d="M195.55 118.03H171.97L166.89 129.34H162.23L181.58 87.01H186L205.35 129.34H200.63L195.55 118.03ZM193.92 114.4L183.76 91.64L173.6 114.38L193.92 114.4Z" fill="#0F206C"/>
<path d="M240.72 110.89V129.34H236.43V111.34C236.43 104.63 232.92 101.18 226.88 101.18C220.04 101.18 215.75 105.41 215.75 112.67V129.34H211.46V97.53H215.57V103.4C217.87 99.53 222.16 97.29 227.66 97.29C235.4 97.29 240.72 101.76 240.72 110.89Z" fill="#0F206C"/>
<path d="M276.4 109.64V129.34H272.29V124.34C270.35 127.6 266.6 129.6 261.34 129.6C254.15 129.6 249.73 125.85 249.73 120.35C249.73 115.45 252.88 111.35 262.01 111.35H272.11V109.44C272.11 104 269.02 101.04 263.11 101.04C259.246 100.989 255.491 102.318 252.52 104.79L250.59 101.58C254.275 98.693 258.85 97.1765 263.53 97.29C271.74 97.29 276.4 101.4 276.4 109.64ZM272.11 119.78V114.58H262.11C255.94 114.58 253.95 117 253.95 120.27C253.95 123.96 256.95 126.27 261.95 126.27C266.85 126.25 270.41 123.96 272.11 119.78Z" fill="#0F206C"/>
<path d="M288.11 84.47H292.4V129.34H288.11V84.47Z" fill="#0F206C"/>
<path d="M331.11 97.53L315.2 133.15C312.54 139.38 309.2 141.37 304.62 141.37C301.759 141.457 298.979 140.415 296.88 138.47L298.88 135.26C299.632 136.039 300.535 136.655 301.534 137.071C302.534 137.487 303.608 137.695 304.69 137.68C307.53 137.68 309.47 136.35 311.28 132.36L312.67 129.28L298.41 97.53H302.89L314.89 124.53L326.89 97.53H331.11Z" fill="#0F206C"/>
<path d="M353.56 127.4C351.661 128.922 349.282 129.716 346.85 129.64C340.85 129.64 337.53 126.25 337.53 120.39V101.16H331.85V97.53H337.53V90.58H341.83V97.53H351.5V101.16H341.83V120.16C341.83 123.91 343.76 125.96 347.33 125.96C349.049 126.005 350.726 125.426 352.05 124.33L353.56 127.4Z" fill="#0F206C"/>
<path d="M360.39 87.49C360.416 86.6766 360.761 85.906 361.351 85.3448C361.94 84.7835 362.726 84.4765 363.54 84.49C363.946 84.4711 364.351 84.5347 364.731 84.6769C365.111 84.8192 365.459 85.0371 365.753 85.3176C366.046 85.5981 366.28 85.9353 366.439 86.3087C366.599 86.6821 366.681 87.084 366.68 87.49C366.643 88.2943 366.299 89.0539 365.72 89.6128C365.14 90.1717 364.369 90.4873 363.563 90.495C362.758 90.5027 361.981 90.2018 361.391 89.6541C360.801 89.1064 360.442 88.3535 360.39 87.55V87.49ZM361.39 97.49H365.68V129.34H361.39V97.49Z" fill="#0F206C"/>
<path d="M374.42 113.43C374.42 103.94 381.32 97.29 390.81 97.29C396.19 97.29 400.73 99.41 403.27 103.58L400.11 105.75C399.086 104.253 397.703 103.036 396.087 102.213C394.47 101.39 392.673 100.987 390.86 101.04C383.86 101.04 378.86 106.04 378.86 113.43C378.86 120.82 383.94 125.83 390.86 125.83C392.669 125.895 394.466 125.502 396.083 124.687C397.7 123.873 399.085 122.663 400.11 121.17L403.32 123.35C400.78 127.46 396.24 129.64 390.86 129.64C381.32 129.64 374.42 122.93 374.42 113.43Z" fill="#0F206C"/>
<path d="M407.26 125.71L409.19 122.32C412.489 124.674 416.447 125.923 420.5 125.89C426.55 125.89 429.03 123.84 429.03 120.69C429.03 112.41 408.4 118.94 408.4 106.36C408.4 101.16 412.88 97.29 420.98 97.29C425.1 97.29 429.57 98.44 432.23 100.29L430.36 103.74C427.585 101.896 424.311 100.947 420.98 101.02C415.24 101.02 412.7 103.26 412.7 106.28C412.7 114.87 433.32 108.39 433.32 120.61C433.32 126.11 428.48 129.68 420.2 129.68C414.94 129.64 409.86 127.95 407.26 125.71Z" fill="#0F206C"/>
</g>
<defs>
<clipPath id="clip0_4854:3015">
<rect width="487.25" height="141.37" fill="white"/>
</clipPath>
</defs>
</svg>
